#!OML:ASF F:\VICON\USERDATA\INSTALL\rory3\rory3.ASF
:FULLY-SPECIFIED
:DEGREES
38
root 0.4448709729359983 18.476053680364576 6.688297008215483 3.5781292660713806 -5.225367266423056 0.4653505801298179
lfemur 5.000540952299673 -1.4810549849820243 -27.87571271860129
ltibia 41.182076757459164
lfoot 8.149093331121534 -11.795678040038712
ltoes -10.718229099759515
rfemur -34.90924523042912 0.7661721739989729 24.811514931819055
rtibia 36.52506348047311
rfoot -4.279105698894817 -4.576634836313593
rtoes -9.00353484807198
lowerback 13.44685737316342 -1.22467615852442 -2.3450587531922853
upperback -1.327811816008235 -1.6779836581901475 1.7463156543188911
thorax -8.81540080563382 -0.768535417702895 2.9593704253070348
lowerneck -19.70781718898997 -2.9824293486020386 -2.785911318007476
upperneck 14.220489905145257 -4.222894937125609 4.700559037616314
head 7.741171716873549 -1.7028480282637497 1.6162149006482833
lclavicle 2.9801537496883197e-15 1.1901017953789317e-16
lhumerus -40.78091939939846 -16.894144798806956 95.4311672500773
lradius 118.75040475050402
lwrist 34.13524689878848
lhand -20.517375399889204 2.7810178024377454
lfingers 7.125019999999999
lthumb 5.709863187289555 32.48821586257169
rclavicle 2.980101966012715e-15 1.1898187579222066e-16
rhumerus -65.43708706493086 6.41782115166959 -95.60192551062157
rradius 115.20359596484198
rwrist -15.241166573364675
rhand -15.789332432155568 38.78813408867631
rfingers 7.125019999999999
rthumb 10.299656306797893 9.05948142945271
39
root 0.4480464333938271 18.36525797448858 7.959530584541192 2.9092248266272893 -5.658421776948177 0.49794700358931454
lfemur 2.843345408750576 -0.9347060506504725 -27.27000737972249
ltibia 49.74750423515022
lfoot 7.926614681001726 -11.72397246493605
ltoes -7.967112478258961
rfemur -33.07609221434067 0.7554204086442622 25.293723367426892
rtibia 34.47004582863933
rfoot -4.40400832130633 -4.230383215226491
rtoes -9.850294327978087
lowerback 13.983806604150546 -0.9210234637530407 -1.913524467186531
upperback -1.015100573645117 -1.1742328941013422 1.7585463659234124
thorax -8.86722652569488 -0.6114295578886381 2.6206199151955354
lowerneck -19.773924406471338 -2.9936250721170996 -2.750276386097482
upperneck 13.970017679292908 -4.333829263080894 4.685958099199982
head 7.708229495779463 -1.7052234346668158 1.5955061053696153
lclavicle 2.980153749691165e-15 1.1901017953944849e-16
lhumerus -41.19056619026265 -17.165773679554793 95.53678989175133
lradius 118.54548073390673
lwrist 34.030062590147
lhand -20.469301914634915 2.586114163674543
lfingers 7.125019999999999
lthumb 5.769257284481821 32.24245613094656
rclavicle 2.9801019660162785e-15 1.1898187579416848e-16
rhumerus -64.70279267021394 5.781593468118214 -95.24485146314626
rradius 115.25176777258812
rwrist -15.260299354890519
rhand -15.760754814720732 38.6960361786096
rfingers 7.125019999999999
rthumb 10.320596487587109 8.866722030587873
40
root 0.4419153821426759 18.18552916809618 7.861261953919862 2.161684471763669 -5.880392273377119 0.4186506317819325
lfemur 0.891398455939342 0.27495127946250486 -26.212551952401885
ltibia 59.51570711457202
lfoot 7.936331626612293 -11.646951730177452
ltoes -3.5666245790369584
rfemur -31.113234553554022 0.8197936016960563 25.7611153090362
rtibia 34.08158831743795
rfoot -4.748455358097251 -4.265830084374007
rtoes -10.26242363020109
lowerback 14.554069267974413 -0.6457482127425628 -1.451524165800326
upperback -0.6706152321150642 -0.49941840778930713 1.8741435350668363
thorax -9.020763471073435 -0.42607034949600797 2.26227494784625
lowerneck -19.894289348856827 -3.0161684629792522 -2.7027642941834316
upperneck 13.693756654569036 -4.4881148456857405 4.609431192004058
head 7.660485167558661 -1.7330618465695222 1.56772435409879
lclavicle 2.9801537496921997e-15 1.1901017954001395e-16
lhumerus -41.39646352916061 -16.73761887058791 95.65341349606605
lradius 118.31708373172077
lwrist 33.97147379957111
lhand -20.47483401852532 2.433808302041479
lfingers 7.125019999999999
lthumb 5.790947315784545 32.051089007546246
rclavicle 2.9801019660807025e-15 1.1898187582938126e-16
rhumerus -63.58515845333964 5.216818731844069 -95.02031957149143
rradius 115.30834509643562
rwrist -15.404572870998923
rhand -15.699305851961388 38.58373625700364
rfingers 7.125019999999999
rthumb 10.363342443772025 8.699183439791529
41
root 0.4348300290571154 17.956006834228813 7.426697515346328 1.4366604418161897 -5.789994629075829 -0.2956216588277669
lfemur -0.7948212153377003 1.8892394525626999 -24.509515479009757
ltibia 69.80162486827925
lfoot 7.483979551215193 -11.067290489046334
ltoes -0.9678142353551324
rfemur -29.141264624992154 1.3259874807781877 26.435759538723687
rtibia 35.06855061873452
rfoot -5.035758318165637 -4.585038877746819
rtoes -9.918463936732437
lowerback 15.12121101468543 -0.37221179257578296 -0.8621654220242463
upperback -0.39613560799918446 0.19372642959688124 2.020219251105895
thorax -9.144422517399168 -0.25706027988731006 1.7897281383533754
lowerneck -20.029932390151696 -3.0395647563299995 -2.6399783612235956
upperneck 13.39386737615261 -4.636571767153489 4.515618578871372
head 7.61642062982063 -1.735791445326642 1.5457683444373032
lclavicle 2.9801537496917e-15 1.1901017953974073e-16
lhumerus -41.593997322881236 -15.96608514582136 95.75576726621266
lradius 118.15307927415489
lwrist 34.014704687324404
lhand -20.563903986291233 2.308600697485229
lfingers 7.125019999999999
lthumb 5.737269991108637 31.895803055512836
rclavicle 2.980101966113706e-15 1.189818758474201e-16
rhumerus -62.10656089944575 4.846597763403243 -94.88798383008078
rradius 115.38813546405993
rwrist -15.579139330537002
rhand -15.67606541846715 38.445226938613246
rfingers 7.125019999999999
rthumb 10.381548045858436 8.573355755756273
